<mxfile host="app.diagrams.net" modified="2021-02-24T02:42:26.769Z" agent="5.0 (Macintosh; Intel Mac OS X 10_14_6) AppleWebKit/537.36 (KHTML, like Gecko) Chrome/88.0.4324.182 Safari/537.36" etag="f3KEfeRUTZzGqJK7De6c" version="14.4.2" type="github">
  <diagram id="iRBByY1kd8OzxdS-eSvH" name="Page-1">
    <mxGraphModel dx="786" dy="466" grid="1" gridSize="10" guides="1" tooltips="1" connect="1" arrows="1" fold="1" page="1" pageScale="1" pageWidth="850" pageHeight="1100" math="0" shadow="0">
      <root>
        <mxCell id="0" />
        <mxCell id="1" parent="0" />
        <mxCell id="U6hBxP866lqkesdzH4O1-1" value="" style="rounded=0;whiteSpace=wrap;html=1;" parent="1" vertex="1">
          <mxGeometry x="160" y="35" width="320" height="190" as="geometry" />
        </mxCell>
        <mxCell id="U6hBxP866lqkesdzH4O1-2" value="Text" style="text;html=1;strokeColor=none;fillColor=none;align=center;verticalAlign=middle;whiteSpace=wrap;rounded=0;" parent="1" vertex="1">
          <mxGeometry x="300" y="120" width="40" height="20" as="geometry" />
        </mxCell>
      </root>
    </mxGraphModel>
  </diagram>
</mxfile>
